<svg width="31" height="30" viewBox="0 0 31 30" fill="none" xmlns="http://www.w3.org/2000/svg">
<g clip-path="url(#clip0)">
<path d="M26.3656 0H3.76652C1.68928 0 0 1.68187 0 3.75V26.25C0 28.3181 1.68928 30 3.76652 30H15.0661V19.6875H11.2996V15H15.0661V11.25C15.0661 8.14313 17.5953 5.625 20.7159 5.625H24.4824V10.3125H22.5991C21.5596 10.3125 20.7159 10.215 20.7159 11.25V15H25.424L23.5408 19.6875H20.7159V30H26.3656C28.4429 30 30.1322 28.3181 30.1322 26.25V3.75C30.1322 1.68187 28.4429 0 26.3656 0Z" fill="white"/>
</g>
<defs>
<clipPath id="clip0">
<rect width="30.1322" height="30" fill="white"/>
</clipPath>
</defs>
</svg>
