<svg id="Capa_1" enable-background="new 0 0 512 512" height="512" viewBox="0 0 512 512" width="512" xmlns="http://www.w3.org/2000/svg"><g><path d="m236 250h220c8.284 0 15-6.716 15-15v-220c0-8.284-6.716-15-15-15h-220c-8.284 0-15 6.716-15 15v220c0 8.284 6.716 15 15 15zm95-220h30v38.787l-15 15-15-15zm-80 0h50v45c0 3.978 1.58 7.794 4.393 10.607l30 30c5.858 5.858 15.355 5.858 21.213 0l30-30c2.814-2.813 4.394-6.629 4.394-10.607v-45h50v190h-190z"/><path d="m508.239 345.935c-9.162-25.171-37.922-37.086-62.2-25.767l-89.646 41.794c-2.634-18.792-17.054-34.589-36.751-38.062l-40.825-7.198c-14.426-2.544-27.88-8.016-39.986-16.264-35.188-23.973-80.083-29.591-120.094-15.029l-30.864 11.234-1.396-3.836c-1.36-3.738-4.15-6.783-7.756-8.464-3.605-1.681-7.729-1.862-11.47-.5l-56.381 20.52c-5.926 2.157-9.87 7.789-9.87 14.095v178.542c0 8.284 6.716 15 15 15h64.984c1.75 0 3.486-.306 5.13-.905l56.381-20.521c3.738-1.36 6.783-4.15 8.464-7.756.913-1.958 1.367-4.07 1.388-6.189l128.16 17.613c3.444.473 6.886.708 10.313.708 12.05 0 23.888-2.907 34.713-8.58l160.993-84.375c20.255-10.615 29.534-34.573 21.713-56.06zm-429.9 136.065h-47.339v-153.039l32.417-11.799 54.723 150.351zm394.263-106.578-160.994 84.376c-8.342 4.373-17.688 6.004-27.016 4.723l-142.758-19.619-43.701-120.069 30.864-11.234c30.965-11.27 65.709-6.921 92.941 11.631 15.644 10.658 33.027 17.729 51.669 21.015l40.825 7.198c8.158 1.439 13.606 9.218 12.167 17.377-1.439 8.158-9.218 13.606-17.377 12.167l-95.392-16.82c-8.154-1.439-15.938 4.009-17.376 12.167s4.009 15.938 12.167 17.376l95.391 16.82c14.013 2.471 27.647-1.839 37.558-10.561l117.144-54.614c8.327-3.882 18.191.204 21.333 8.837 2.684 7.373-.499 15.59-7.445 19.23z"/></g></svg>