<svg width="31" height="30" viewBox="0 0 31 30" fill="none" xmlns="http://www.w3.org/2000/svg">
<g clip-path="url(#clip0)">
<path d="M26.9955 0H4.3964C2.31917 0 0.629883 1.68187 0.629883 3.75V26.25C0.629883 28.3181 2.31917 30 4.3964 30H15.696V19.6875H11.9294V15H15.696V11.25C15.696 8.14313 18.2252 5.625 21.3457 5.625H25.1123V10.3125H23.229C22.1894 10.3125 21.3457 10.215 21.3457 11.25V15H26.0539L24.1706 19.6875H21.3457V30H26.9955C29.0728 30 30.762 28.3181 30.762 26.25V3.75C30.762 1.68187 29.0728 0 26.9955 0Z" fill="#FFA756"/>
</g>
<defs>
<clipPath id="clip0">
<rect width="30.1322" height="30" fill="white" transform="translate(0.629883)"/>
</clipPath>
</defs>
</svg>
