<svg width="31" height="30" viewBox="0 0 31 30" fill="none" xmlns="http://www.w3.org/2000/svg">
<g clip-path="url(#clip0)">
<path d="M9.41676 24.7852H5.29713V11.543H9.41676V24.7852ZM9.8278 7.32399C9.8278 5.99808 8.74732 4.92188 7.41626 4.92188C6.08013 4.92188 5.00241 5.99808 5.00241 7.32399C5.00241 8.65036 6.08013 9.72656 7.41626 9.72656C8.74732 9.72656 9.8278 8.65036 9.8278 7.32399ZM24.8355 17.4998C24.8355 13.9451 24.0812 11.3086 19.9103 11.3086C17.9061 11.3086 16.5608 12.3065 16.0116 13.3443H16.0077V11.543H12.0058V24.7852H16.0077V18.2103C16.0077 16.4884 16.4479 14.8203 18.5917 14.8203C20.7062 14.8203 20.7747 16.7894 20.7747 18.3197V24.7852H24.8355V17.4998ZM30.1322 26.4844V3.51562C30.1322 1.577 28.5482 0 26.601 0H3.53111C1.58394 0 0 1.577 0 3.51562V26.4844C0 28.423 1.58394 30 3.53111 30H26.601C28.5482 30 30.1322 28.423 30.1322 26.4844V26.4844ZM26.601 2.34375C27.25 2.34375 27.7781 2.86949 27.7781 3.51562V26.4844C27.7781 27.1305 27.25 27.6562 26.601 27.6562H3.53111C2.88213 27.6562 2.35408 27.1305 2.35408 26.4844V3.51562C2.35408 2.86949 2.88213 2.34375 3.53111 2.34375H26.601Z" fill="white"/>
</g>
<defs>
<clipPath id="clip0">
<rect width="30.1322" height="30" fill="white"/>
</clipPath>
</defs>
</svg>
