<svg width="32" height="30" viewBox="0 0 32 30" fill="none" xmlns="http://www.w3.org/2000/svg">
<g clip-path="url(#clip0)">
<path d="M10.3507 24.7852H6.23109V11.543H10.3507V24.7852ZM10.7618 7.32399C10.7618 5.99808 9.68128 4.92188 8.35022 4.92188C7.01409 4.92188 5.93637 5.99808 5.93637 7.32399C5.93637 8.65036 7.01409 9.72656 8.35022 9.72656C9.68128 9.72656 10.7618 8.65036 10.7618 7.32399ZM25.7695 17.4998C25.7695 13.9451 25.0152 11.3086 20.8443 11.3086C18.8401 11.3086 17.4948 12.3065 16.9456 13.3443H16.9417V11.543H12.9397V24.7852H16.9417V18.2103C16.9417 16.4884 17.3819 14.8203 19.5256 14.8203C21.6402 14.8203 21.7087 16.7894 21.7087 18.3197V24.7852H25.7695V17.4998ZM31.0661 26.4844V3.51562C31.0661 1.577 29.4822 0 27.535 0H4.46507C2.5179 0 0.93396 1.577 0.93396 3.51562V26.4844C0.93396 28.423 2.5179 30 4.46507 30H27.535C29.4822 30 31.0661 28.423 31.0661 26.4844ZM27.535 2.34375C28.184 2.34375 28.712 2.86949 28.712 3.51562V26.4844C28.712 27.1305 28.184 27.6562 27.535 27.6562H4.46507C3.81609 27.6562 3.28803 27.1305 3.28803 26.4844V3.51562C3.28803 2.86949 3.81609 2.34375 4.46507 2.34375H27.535Z" fill="#FFA756"/>
</g>
<defs>
<clipPath id="clip0">
<rect width="30.1322" height="30" fill="white" transform="translate(0.93396)"/>
</clipPath>
</defs>
</svg>
