<svg width="31" height="30" viewBox="0 0 31 30" fill="none" xmlns="http://www.w3.org/2000/svg">
<g clip-path="url(#clip0)">
<path d="M20.7159 0H9.4163C4.21662 0 0 4.19813 0 9.375V20.625C0 25.8019 4.21662 30 9.4163 30H20.7159C25.9155 30 30.1322 25.8019 30.1322 20.625V9.375C30.1322 4.19813 25.9155 0 20.7159 0ZM27.3073 20.625C27.3073 24.2437 24.3506 27.1875 20.7159 27.1875H9.4163C5.78161 27.1875 2.82489 24.2437 2.82489 20.625V9.375C2.82489 5.75625 5.78161 2.8125 9.4163 2.8125H20.7159C24.3506 2.8125 27.3073 5.75625 27.3073 9.375V20.625Z" fill="#FEFEFE"/>
<path d="M15.0661 7.5C10.9059 7.5 7.53302 10.8581 7.53302 15C7.53302 19.1419 10.9059 22.5 15.0661 22.5C19.2262 22.5 22.5991 19.1419 22.5991 15C22.5991 10.8581 19.2262 7.5 15.0661 7.5ZM15.0661 19.6875C12.4709 19.6875 10.3579 17.5838 10.3579 15C10.3579 12.4144 12.4709 10.3125 15.0661 10.3125C17.6612 10.3125 19.7742 12.4144 19.7742 15C19.7742 17.5838 17.6612 19.6875 15.0661 19.6875Z" fill="#FEFEFE"/>
<path d="M23.1642 7.93685C23.7186 7.93685 24.168 7.48942 24.168 6.93748C24.168 6.38554 23.7186 5.93811 23.1642 5.93811C22.6098 5.93811 22.1604 6.38554 22.1604 6.93748C22.1604 7.48942 22.6098 7.93685 23.1642 7.93685Z" fill="#FEFEFE"/>
</g>
<defs>
<clipPath id="clip0">
<rect width="30.1322" height="30" fill="white"/>
</clipPath>
</defs>
</svg>
