<svg width="31" height="30" viewBox="0 0 31 30" fill="none" xmlns="http://www.w3.org/2000/svg">
<g clip-path="url(#clip0)">
<path d="M20.9537 0H9.65409C4.45441 0 0.237793 4.19813 0.237793 9.375V20.625C0.237793 25.8019 4.45441 30 9.65409 30H20.9537C26.1533 30 30.37 25.8019 30.37 20.625V9.375C30.37 4.19813 26.1533 0 20.9537 0ZM27.5451 20.625C27.5451 24.2437 24.5883 27.1875 20.9537 27.1875H9.65409C6.0194 27.1875 3.06268 24.2437 3.06268 20.625V9.375C3.06268 5.75625 6.0194 2.8125 9.65409 2.8125H20.9537C24.5883 2.8125 27.5451 5.75625 27.5451 9.375V20.625Z" fill="#FFA756"/>
<path d="M15.3039 7.5C11.1438 7.5 7.77087 10.8581 7.77087 15C7.77087 19.1419 11.1438 22.5 15.3039 22.5C19.464 22.5 22.837 19.1419 22.837 15C22.837 10.8581 19.464 7.5 15.3039 7.5ZM15.3039 19.6875C12.7088 19.6875 10.5958 17.5837 10.5958 15C10.5958 12.4144 12.7088 10.3125 15.3039 10.3125C17.899 10.3125 20.0121 12.4144 20.0121 15C20.0121 17.5837 17.899 19.6875 15.3039 19.6875Z" fill="#FFA756"/>
<path d="M23.402 7.93685C23.9563 7.93685 24.4058 7.48942 24.4058 6.93748C24.4058 6.38554 23.9563 5.93811 23.402 5.93811C22.8476 5.93811 22.3982 6.38554 22.3982 6.93748C22.3982 7.48942 22.8476 7.93685 23.402 7.93685Z" fill="#FFA756"/>
</g>
<defs>
<clipPath id="clip0">
<rect width="30.1322" height="30" fill="white" transform="translate(0.237793)"/>
</clipPath>
</defs>
</svg>
